<?xml version="1.0" encoding="utf-8"?>
<!-- Generator: Adobe Illustrator 17.0.1, SVG Export Plug-In . SVG Version: 6.00 Build 0)  -->
<!DOCTYPE svg PUBLIC "-//W3C//DTD SVG 1.1//EN" "http://www.w3.org/Graphics/SVG/1.1/DTD/svg11.dtd">
<svg version="1.1" id="Capa_1" xmlns="http://www.w3.org/2000/svg" xmlns:xlink="http://www.w3.org/1999/xlink" x="0px" y="0px"
	 width="100px" height="160.494px" viewBox="0 0 100 160.494" enable-background="new 0 0 100 160.494" xml:space="preserve">
<g>
	<g>
		<path fill="#FFFFFF" d="M7.26,153.029v-34.418h6.472c0.784,0,1.52,0.147,2.157,0.392c2.5,0.883,4.315,3.236,4.315,6.079
			c0,0,0,0,0,0.049c0,1.618-0.638,3.089-1.667,4.216c1.078,1.177,1.667,2.697,1.667,4.364v19.317h-4.315v-19.317
			c0-1.226-0.932-2.206-2.157-2.206h-2.157v21.523H7.26z M13.732,127.191c1.177,0,2.157-0.931,2.157-2.108
			c0-1.177-0.981-2.157-2.157-2.157h-2.157v4.265H13.732z"/>
		<path fill="#FFFFFF" d="M38.541,125.083c0,2.844-1.814,5.246-4.314,6.129v21.817h-4.315v-21.817
			c-2.5-0.883-4.315-3.285-4.315-6.129v-6.373h4.315v6.373c0,1.226,0.981,2.157,2.157,2.157c1.177,0,2.157-0.931,2.157-2.157v-6.373
			h4.314V125.083z"/>
		<path fill="#FFFFFF" d="M56.878,153.078h-4.315v-24.906l-2.157,4.265l-2.157-4.265v24.906h-4.315v-34.467h4.216l2.256,4.462
			l2.304-4.462h4.167V153.078z"/>
		<path fill="#FFFFFF" d="M75.263,124.691v28.338h-4.314v-21.574h-4.363v21.574h-4.314v-28.338c0-2.795,1.814-5.197,4.314-6.129
			c0.686-0.196,1.422-0.343,2.157-0.343c0.784,0,1.52,0.147,2.206,0.343C73.449,119.494,75.263,121.896,75.263,124.691z
			 M70.949,124.691c0-1.177-0.981-2.157-2.206-2.157c-1.177,0-2.157,0.981-2.157,2.157v2.542h4.363V124.691z"/>
		<path fill="#FFFFFF" d="M80.656,153.029v-34.418h6.472c0.784,0,1.52,0.147,2.157,0.392c2.5,0.883,4.314,3.236,4.314,6.079
			c0,0,0,0,0,0.049c0,1.618-0.638,3.089-1.667,4.216c1.078,1.177,1.667,2.697,1.667,4.364v19.317h-4.314v-19.317
			c0-1.226-0.932-2.206-2.157-2.206h-2.157v21.523H80.656z M87.128,127.191c1.177,0,2.157-0.931,2.157-2.108
			c0-1.177-0.981-2.157-2.157-2.157h-2.157v4.265H87.128z"/>
	</g>
	<g>
		<path fill="#FFFFFF" d="M7.285,105.548V71.13h6.472c0.784,0,1.52,0.147,2.157,0.392c2.5,0.883,4.315,3.236,4.315,6.079
			c0,0,0,0,0,0.049c0,1.618-0.638,3.089-1.667,4.216c1.078,1.177,1.667,2.697,1.667,4.364v19.317h-4.315V86.231
			c0-1.226-0.932-2.206-2.157-2.206h-2.157v21.523H7.285z M13.756,79.71c1.177,0,2.157-0.931,2.157-2.108s-0.981-2.157-2.157-2.157
			h-2.157v4.265H13.756z"/>
		<path fill="#FFFFFF" d="M38.565,77.308V99.42c0,2.844-1.814,5.197-4.315,6.079c-0.686,0.245-1.422,0.392-2.157,0.392
			c-0.736,0-1.471-0.147-2.157-0.392c-2.5-0.882-4.315-3.236-4.315-6.079V77.308c0-2.795,1.814-5.197,4.315-6.079
			c0.686-0.245,1.422-0.392,2.157-0.392c0.735,0,1.471,0.147,2.157,0.392C36.751,72.111,38.565,74.513,38.565,77.308z
			 M34.251,77.308c0-1.177-0.981-2.157-2.157-2.157c-1.177,0-2.157,0.981-2.157,2.157V99.42c0,1.177,0.981,2.157,2.157,2.157
			c1.177,0,2.157-0.981,2.157-2.157V77.308z"/>
		<path fill="#FFFFFF" d="M56.902,105.597h-4.315V80.691l-2.157,4.265l-2.157-4.265v24.906h-4.315V71.13h4.216l2.256,4.462
			l2.304-4.462h4.167V105.597z"/>
		<path fill="#FFFFFF" d="M75.288,77.21v28.338h-4.314v-21.58H66.61v21.58h-4.315V77.21c0-2.795,1.814-5.197,4.315-6.129
			c0.686-0.196,1.422-0.343,2.157-0.343c0.784,0,1.52,0.147,2.206,0.343C73.474,72.013,75.288,74.416,75.288,77.21z M70.974,77.21
			c0-1.177-0.981-2.157-2.206-2.157c-1.177,0-2.157,0.981-2.157,2.157v2.542h4.363V77.21z"/>
		<path fill="#FFFFFF" d="M84.946,71.229v8.727l4.462-8.727h4.167v34.319h-4.314V80.74l-4.315,8.58v16.228h-4.265V71.229H84.946z"/>
	</g>
	<g>
		<path fill="#FFFFFF" d="M45.894,18.752c-0.372-0.775,1.446-5.538,4.099-0.964C49.993,17.788,47.91,17.738,45.894,18.752z"/>
		<g>
			<path fill="#FFFFFF" d="M88.431,14.516v37.845H12.43V14.516H88.431 M91.313,8.909H9.548c-1.505,0-2.726,1.22-2.726,2.725v43.608
				c0,1.505,1.22,2.725,2.726,2.725h81.765c1.505,0,2.726-1.22,2.726-2.725V11.634C94.038,10.129,92.818,8.909,91.313,8.909
				L91.313,8.909z"/>
			<path fill="#FFFFFF" d="M82.489,28.174c-0.045-1.216-1.068-2.165-2.284-2.12l-8.857,0.33c0.134-2.634-5.634-7.58-16.243-8.287
				c-3.73-0.249-7.239,0.277-10.068,1.606c-1.062-1.716-2.838-2.661-4.502-2.214c-2.154,0.579-3.304,3.271-2.567,6.013
				c0.236,0.879,0.638,1.656,1.145,2.288l-0.05,0.207l-0.017-0.023c0,0-11.132-2.733-26.754-2.446L10.834,53l41.076,1.308
				c0.025-0.085,0.782-0.393,2.279-5.659c-9.547,1.455-12.341,2.606-12.341,2.606s5.799-5.3,6.687-6.781
				c-1.521,0.414-6.996,1.465-6.996,1.465s3.715-3.531,5.493-5.065c-1.791-0.125-5.729,0.668-5.729,0.668l4.481-5.839l-1.75,3.862
				c0,0,2.864-0.67,6.074-0.386c-1.818,1.779-4.09,4.074-4.09,4.074s2.696-0.73,5.801-0.973c-1.207,1.791-4.534,5.789-4.534,5.789
				c1.677-0.347,5.282-0.915,7.654-1.42c2.462-0.738,21.968-4.398,23.006-4.675C84.347,40.265,82.489,28.174,82.489,28.174z"/>
		</g>
	</g>
</g>
</svg>
