<?xml version="1.0" encoding="utf-8"?>
<!-- Generator: Adobe Illustrator 17.0.1, SVG Export Plug-In . SVG Version: 6.00 Build 0)  -->
<!DOCTYPE svg PUBLIC "-//W3C//DTD SVG 1.1//EN" "http://www.w3.org/Graphics/SVG/1.1/DTD/svg11.dtd">
<svg version="1.1" id="Capa_1" xmlns="http://www.w3.org/2000/svg" xmlns:xlink="http://www.w3.org/1999/xlink" x="0px" y="0px"
	 width="573.495px" height="78.57px" viewBox="0 0 573.495 78.57" enable-background="new 0 0 573.495 78.57" xml:space="preserve">
<g>
	<g>
		<path fill="#2F5D74" d="M279.563,16.172c-0.569-1.187,2.216-8.485,6.281-1.478C285.844,14.695,282.652,14.619,279.563,16.172z"/>
		<g>
			<path fill="#2F5D74" d="M344.74,9.682v57.987H228.288V9.682H344.74 M349.155,1.09H223.872c-2.306,0-4.176,1.87-4.176,4.176
				v66.817c0,2.306,1.87,4.176,4.176,4.176h125.282c2.306,0,4.176-1.87,4.176-4.176V5.266C353.331,2.96,351.461,1.09,349.155,1.09
				L349.155,1.09z"/>
			<path fill="#2F5D74" d="M335.634,30.609c-0.07-1.863-1.636-3.317-3.499-3.248l-13.571,0.505
				c0.206-4.037-8.632-11.615-24.888-12.698c-5.715-0.381-11.092,0.425-15.427,2.46c-1.627-2.629-4.348-4.077-6.898-3.393
				c-3.301,0.887-5.062,5.011-3.934,9.213c0.362,1.347,0.977,2.538,1.755,3.506l-0.076,0.318l-0.027-0.035
				c0,0-17.057-4.187-40.994-3.748l-2.234,45.159l62.937,2.005c0.039-0.13,1.2-0.623,3.489-8.67
				c-14.625,2.229-18.907,3.992-18.907,3.992s8.886-8.12,10.247-10.39c-2.331,0.635-10.719,2.245-10.719,2.245
				s5.692-5.411,8.416-7.76c-2.743-0.191-8.779,1.023-8.779,1.023l6.866-8.946l-2.682,5.917c0,0,4.389-1.026,9.307-0.592
				c-2.785,2.725-6.267,6.242-6.267,6.242s4.132-1.119,8.889-1.491c-1.849,2.744-6.948,8.87-6.948,8.87
				c2.575-0.533,8.119-1.407,11.753-2.181c3.81-1.136,33.636-6.733,35.225-7.157C338.481,49.135,335.634,30.609,335.634,30.609z"/>
		</g>
	</g>
	<g>
		<g>
			<path fill="#2F5D74" d="M382.002,76.523V0.862h14.227c1.724,0,3.341,0.324,4.742,0.863c5.497,1.94,9.485,7.113,9.485,13.364
				c0,0,0,0,0,0.108c0,3.557-1.402,6.79-3.665,9.269c2.371,2.587,3.665,5.928,3.665,9.593v42.465h-9.485V34.058
				c0-2.695-2.048-4.85-4.742-4.85h-4.742v47.315H382.002z M396.229,19.723c2.587,0,4.742-2.048,4.742-4.634
				s-2.156-4.742-4.742-4.742h-4.742v9.377H396.229z"/>
			<path fill="#2F5D74" d="M450.766,15.089c0,6.251-3.988,11.532-9.485,13.472v47.962h-9.485V28.561
				c-5.497-1.94-9.485-7.221-9.485-13.472V1.078h9.485v14.011c0,2.695,2.156,4.742,4.742,4.742s4.742-2.048,4.742-4.742V1.078h9.485
				V15.089z"/>
			<path fill="#2F5D74" d="M491.077,76.631h-9.485V21.879l-4.742,9.377l-4.742-9.377v54.752h-9.485V0.862h9.269l4.958,9.808
				l5.066-9.808h9.161V76.631z"/>
			<path fill="#2F5D74" d="M531.495,14.227v62.296h-9.485V29.097h-9.592v47.426h-9.485V14.227c0-6.143,3.988-11.425,9.485-13.472
				C513.927,0.323,515.543,0,517.16,0c1.724,0,3.341,0.323,4.85,0.755C527.507,2.802,531.495,8.084,531.495,14.227z M522.01,14.227
				c0-2.587-2.156-4.742-4.85-4.742c-2.587,0-4.742,2.156-4.742,4.742v5.589h9.592V14.227z"/>
			<path fill="#2F5D74" d="M543.35,76.523V0.862h14.227c1.724,0,3.341,0.324,4.742,0.863c5.497,1.94,9.485,7.113,9.485,13.364
				c0,0,0,0,0,0.108c0,3.557-1.402,6.79-3.665,9.269c2.371,2.587,3.665,5.928,3.665,9.593v42.465h-9.485V34.058
				c0-2.695-2.048-4.85-4.742-4.85h-4.742v47.315H543.35z M557.577,19.723c2.587,0,4.742-2.048,4.742-4.634
				s-2.156-4.742-4.742-4.742h-4.742v9.377H557.577z"/>
		</g>
		<g>
			<path fill="#2F5D74" d="M1.804,76.524V0.863h14.227c1.724,0,3.341,0.324,4.742,0.863c5.497,1.94,9.485,7.113,9.485,13.364
				c0,0,0,0,0,0.108c0,3.557-1.402,6.79-3.665,9.269c2.371,2.587,3.665,5.928,3.665,9.593v42.465h-9.485V34.059
				c0-2.695-2.048-4.85-4.742-4.85h-4.742v47.315H1.804z M16.031,19.724c2.587,0,4.742-2.048,4.742-4.634s-2.156-4.742-4.742-4.742
				h-4.742v9.377H16.031z"/>
			<path fill="#2F5D74" d="M70.569,14.443v48.608c0,6.251-3.988,11.425-9.485,13.364c-1.509,0.539-3.126,0.863-4.742,0.863
				c-1.617,0-3.233-0.323-4.742-0.863c-5.497-1.94-9.485-7.113-9.485-13.364V14.443c0-6.143,3.988-11.425,9.485-13.364
				c1.509-0.539,3.125-0.863,4.742-0.863c1.616,0,3.233,0.323,4.742,0.863C66.581,3.018,70.569,8.3,70.569,14.443z M61.084,14.443
				c0-2.587-2.156-4.742-4.742-4.742s-4.742,2.156-4.742,4.742v48.608c0,2.587,2.156,4.742,4.742,4.742s4.742-2.156,4.742-4.742
				V14.443z"/>
			<path fill="#2F5D74" d="M110.879,76.632h-9.485V21.88l-4.742,9.377L91.91,21.88v54.752h-9.485V0.863h9.269l4.958,9.808
				l5.066-9.808h9.161V76.632z"/>
			<path fill="#2F5D74" d="M151.297,14.228v62.296h-9.485V29.085h-9.592v47.439h-9.485V14.228c0-6.143,3.988-11.425,9.485-13.472
				c1.509-0.431,3.125-0.755,4.742-0.755c1.724,0,3.341,0.323,4.85,0.755C147.309,2.803,151.297,8.084,151.297,14.228z
				 M141.812,14.228c0-2.587-2.156-4.742-4.85-4.742c-2.587,0-4.742,2.156-4.742,4.742v5.588h9.592V14.228z"/>
			<path fill="#2F5D74" d="M172.529,1.079v19.185l9.808-19.185h9.161v75.445h-9.485V21.987l-9.485,18.861v35.675h-9.377V1.079
				H172.529z"/>
		</g>
	</g>
</g>
</svg>
