<?xml version="1.0" encoding="utf-8"?>
<!-- Generator: Adobe Illustrator 17.0.1, SVG Export Plug-In . SVG Version: 6.00 Build 0)  -->
<!DOCTYPE svg PUBLIC "-//W3C//DTD SVG 1.1//EN" "http://www.w3.org/Graphics/SVG/1.1/DTD/svg11.dtd">
<svg version="1.1" id="Capa_1" xmlns="http://www.w3.org/2000/svg" xmlns:xlink="http://www.w3.org/1999/xlink" x="0px" y="0px"
	 width="112px" height="57.304px" viewBox="0 0 112 57.304" enable-background="new 0 0 112 57.304" xml:space="preserve">
<g>
	<path fill="#EEAD1B" d="M3.448,10.614c4.119-0.289,6.397-2.779,6.885-6.969c30.5,0,60.829,0,90.461,0
		c1.488,2.201,2.665,4.014,3.935,5.761c0.259,0.356,0.848,0.505,1.313,0.672c2.8,1.001,2.813,0.993,2.81,4.1
		c-0.009,10.138-0.042,20.276-0.023,30.414c0.002,1.336-0.207,2.098-1.752,2.55c-2.43,0.711-4.351,2.343-5.028,4.919
		c-0.395,1.503-1.229,1.738-2.593,1.737c-24.62-0.013-49.241,0.015-73.861,0.035c-4.408,0.004-8.816-0.023-13.223,0.036
		c-1.257,0.017-1.865-0.282-2.151-1.664c-0.613-2.965-2.744-4.56-5.594-5.169c-0.993-0.212-1.385-0.592-1.384-1.604
		c0.014-11.397,0.001-22.794,0-34.191C3.244,11.121,3.317,11.005,3.448,10.614z M46.592,43.183c1.866,0,3.436-0.089,4.991,0.026
		c1.456,0.108,1.792-0.46,1.782-1.839c-0.059-8.626-0.03-17.254-0.039-25.88c-0.001-0.542-0.074-1.084-0.108-1.556
		c-3.422,0-6.657,0-9.876,0c-0.552,4.184-1.083,8.198-1.613,12.213c-0.103-0.011-0.205-0.023-0.308-0.034
		c-0.609-4.083-1.219-8.165-1.824-12.221c-3.379,0-6.557,0-9.911,0c0,9.497-0.009,18.867,0.035,28.236
		c0.002,0.344,0.499,0.969,0.788,0.983c1.923,0.088,3.851,0.046,5.888,0.046c0-6.001,0-11.722,0-17.443
		c0.089-0.007,0.179-0.014,0.268-0.021c0.833,5.751,1.665,11.502,2.513,17.357c1.623,0,3.149,0,4.77,0
		c0.807-5.962,1.599-11.804,2.39-17.646c0.084,0.004,0.169,0.007,0.253,0.011C46.592,31.239,46.592,37.066,46.592,43.183z
		 M56.464,43.18c3.298,0,6.37,0.026,9.442-0.013c1.255-0.016,2.517-0.108,3.759-0.282c2.602-0.365,4.095-1.883,4.133-4.552
		c0.091-6.285,0.098-12.572,0.007-18.857c-0.041-2.837-1.712-4.916-4.509-5.213c-4.217-0.447-8.479-0.474-12.832-0.684
		C56.464,23.62,56.464,33.274,56.464,43.18z M76.732,13.857c0,9.844,0,19.5,0,29.463c2.575-0.812,5.434,1.278,7.514-1.573
		c1.89,1.701,4.037,2.444,6.533,1.282c2.577-1.199,2.729-3.528,2.724-5.928c-0.01-4.658,0.024-9.316-0.029-13.974
		c-0.03-2.663-1.527-4.378-4.166-4.364c-1.759,0.009-3.515,0.67-5.38,1.062c0-1.768,0-3.825,0-5.968
		C81.465,13.857,79.159,13.857,76.732,13.857z M26.481,43.08c0-9.884,0-19.539,0-29.171c-2.559,0-4.973,0-7.346,0
		c0,9.801,0,19.456,0,29.171C21.637,43.08,24.002,43.08,26.481,43.08z M96.567,19.564c1.551-0.042,2.71-1.172,2.57-2.429
		c-0.157-1.415-0.976-2.355-2.467-2.276c-1.484,0.079-2.232,1.022-2.165,2.513C94.57,18.807,95.427,19.471,96.567,19.564z"/>
	<path fill="#EEAD1B" d="M64.062,18.864c1.476-0.175,2.224,0.37,2.22,1.831c-0.011,5.081-0.009,10.163-0.028,15.244
		c-0.005,1.393-0.487,2.322-2.192,1.956C64.062,31.545,64.062,25.224,64.062,18.864z"/>
	<path fill="#EEAD1B" d="M84.017,30.931c0-2.131-0.064-4.266,0.044-6.392c0.028-0.549,0.591-1.071,0.909-1.605
		c0.391,0.482,1.111,0.958,1.12,1.448c0.088,4.509,0.083,9.021,0.007,13.531c-0.007,0.434-0.674,0.857-1.035,1.284
		c-0.346-0.499-0.966-0.984-0.991-1.499c-0.11-2.251-0.047-4.511-0.047-6.768C84.021,30.931,84.019,30.931,84.017,30.931z"/>
</g>
</svg>
