<svg xmlns="http://www.w3.org/2000/svg" width="100" height="160.494" viewBox="0 0 100 160.494"><g fill="#FFF"><path d="M7.26 153.029v-34.418h6.472c.784 0 1.52.147 2.157.392 2.5.883 4.315 3.236 4.315 6.079v.049c0 1.618-.638 3.089-1.667 4.216 1.078 1.177 1.667 2.697 1.667 4.364v19.317h-4.315v-19.317c0-1.226-.932-2.206-2.157-2.206h-2.157v21.523H7.26zm6.472-25.838c1.177 0 2.157-.931 2.157-2.108a2.176 2.176 0 0 0-2.157-2.157h-2.157v4.265h2.157zM38.541 125.083a6.495 6.495 0 0 1-4.314 6.129v21.817h-4.315v-21.817a6.496 6.496 0 0 1-4.315-6.129v-6.373h4.315v6.373c0 1.226.981 2.157 2.157 2.157a2.144 2.144 0 0 0 2.157-2.157v-6.373h4.314v6.373zM56.878 153.078h-4.315v-24.906l-2.157 4.265-2.157-4.265v24.906h-4.315v-34.467h4.216l2.256 4.462 2.304-4.462h4.167v34.467zM75.263 124.691v28.338h-4.314v-21.574h-4.363v21.574h-4.314v-28.338c0-2.795 1.814-5.197 4.314-6.129.686-.196 1.422-.343 2.157-.343.784 0 1.52.147 2.206.343 2.5.932 4.314 3.334 4.314 6.129zm-4.314 0c0-1.177-.981-2.157-2.206-2.157a2.176 2.176 0 0 0-2.157 2.157v2.542h4.363v-2.542zM80.656 153.029v-34.418h6.472c.784 0 1.52.147 2.157.392 2.5.883 4.314 3.236 4.314 6.079v.049c0 1.618-.638 3.089-1.667 4.216 1.078 1.177 1.667 2.697 1.667 4.364v19.317h-4.314v-19.317c0-1.226-.932-2.206-2.157-2.206h-2.157v21.523h-4.315zm6.472-25.838c1.177 0 2.157-.931 2.157-2.108a2.176 2.176 0 0 0-2.157-2.157h-2.157v4.265h2.157z"/><g><path d="M7.285 105.548V71.13h6.472c.784 0 1.52.147 2.157.392 2.5.883 4.315 3.236 4.315 6.079v.049c0 1.618-.638 3.089-1.667 4.216 1.078 1.177 1.667 2.697 1.667 4.364v19.317h-4.315V86.231c0-1.226-.932-2.206-2.157-2.206H11.6v21.523H7.285zm6.471-25.838c1.177 0 2.157-.931 2.157-2.108s-.981-2.157-2.157-2.157h-2.157v4.265h2.157zM38.565 77.308V99.42c0 2.844-1.814 5.197-4.315 6.079a6.46 6.46 0 0 1-2.157.392 6.455 6.455 0 0 1-2.157-.392c-2.5-.882-4.315-3.236-4.315-6.079V77.308c0-2.795 1.814-5.197 4.315-6.079a6.46 6.46 0 0 1 2.157-.392 6.46 6.46 0 0 1 2.157.392c2.501.882 4.315 3.284 4.315 6.079zm-4.314 0a2.176 2.176 0 0 0-2.157-2.157 2.176 2.176 0 0 0-2.157 2.157V99.42c0 1.177.981 2.157 2.157 2.157a2.176 2.176 0 0 0 2.157-2.157V77.308zM56.902 105.597h-4.315V80.691l-2.157 4.265-2.157-4.265v24.906h-4.315V71.13h4.216l2.256 4.462 2.304-4.462h4.167v34.467zM75.288 77.21v28.338h-4.314v-21.58H66.61v21.58h-4.315V77.21c0-2.795 1.814-5.197 4.315-6.129.686-.196 1.422-.343 2.157-.343.784 0 1.52.147 2.206.343 2.501.932 4.315 3.335 4.315 6.129zm-4.314 0c0-1.177-.981-2.157-2.206-2.157a2.176 2.176 0 0 0-2.157 2.157v2.542h4.363V77.21zM84.946 71.229v8.727l4.462-8.727h4.167v34.319h-4.314V80.74l-4.315 8.58v16.228h-4.265V71.229h4.265z"/></g><g><path d="M45.894 18.752c-.372-.775 1.446-5.538 4.099-.964 0 0-2.083-.05-4.099.964z"/><path d="M88.431 14.516v37.845H12.43V14.516h76.001m2.882-5.607H9.548a2.726 2.726 0 0 0-2.726 2.725v43.608a2.725 2.725 0 0 0 2.726 2.725h81.765a2.726 2.726 0 0 0 2.726-2.725V11.634a2.726 2.726 0 0 0-2.726-2.725z"/><path d="M82.489 28.174a2.204 2.204 0 0 0-2.284-2.12l-8.857.33c.134-2.634-5.634-7.58-16.243-8.287-3.73-.249-7.239.277-10.068 1.606-1.062-1.716-2.838-2.661-4.502-2.214-2.154.579-3.304 3.271-2.567 6.013a6.244 6.244 0 0 0 1.145 2.288l-.05.207-.017-.023s-11.132-2.733-26.754-2.446L10.834 53l41.076 1.308c.025-.085.782-.393 2.279-5.659-9.547 1.455-12.341 2.606-12.341 2.606s5.799-5.3 6.687-6.781c-1.521.414-6.996 1.465-6.996 1.465s3.715-3.531 5.493-5.065c-1.791-.125-5.729.668-5.729.668l4.481-5.839-1.75 3.862s2.864-.67 6.074-.386c-1.818 1.779-4.09 4.074-4.09 4.074s2.696-.73 5.801-.973c-1.207 1.791-4.534 5.789-4.534 5.789 1.677-.347 5.282-.915 7.654-1.42 2.462-.738 21.968-4.398 23.006-4.675 6.402-1.709 4.544-13.8 4.544-13.8z"/></g></g></svg>