<svg xmlns="http://www.w3.org/2000/svg" width="573.495" height="78.57" viewBox="0 0 573.495 78.57"><g fill="#2F5D74"><path d="M279.563 16.172c-.569-1.187 2.216-8.485 6.281-1.478 0 .001-3.192-.075-6.281 1.478z"/><path d="M344.74 9.682v57.987H228.288V9.682H344.74m4.415-8.592H223.872a4.176 4.176 0 0 0-4.176 4.176v66.817a4.176 4.176 0 0 0 4.176 4.176h125.282a4.176 4.176 0 0 0 4.176-4.176V5.266a4.175 4.175 0 0 0-4.175-4.176z"/><path d="M335.634 30.609a3.377 3.377 0 0 0-3.499-3.248l-13.571.505c.206-4.037-8.632-11.615-24.888-12.698-5.715-.381-11.092.425-15.427 2.46-1.627-2.629-4.348-4.077-6.898-3.393-3.301.887-5.062 5.011-3.934 9.213a9.554 9.554 0 0 0 1.755 3.506l-.076.318-.027-.035s-17.057-4.187-40.994-3.748l-2.234 45.159 62.937 2.005c.039-.13 1.2-.623 3.489-8.67-14.625 2.229-18.907 3.992-18.907 3.992s8.886-8.12 10.247-10.39c-2.331.635-10.719 2.245-10.719 2.245s5.692-5.411 8.416-7.76c-2.743-.191-8.779 1.023-8.779 1.023l6.866-8.946-2.682 5.917s4.389-1.026 9.307-.592c-2.785 2.725-6.267 6.242-6.267 6.242s4.132-1.119 8.889-1.491c-1.849 2.744-6.948 8.87-6.948 8.87 2.575-.533 8.119-1.407 11.753-2.181 3.81-1.136 33.636-6.733 35.225-7.157 9.813-2.62 6.966-21.146 6.966-21.146z"/><g><path d="M382.002 76.523V.862h14.227c1.724 0 3.341.324 4.742.863 5.497 1.94 9.485 7.113 9.485 13.364v.108c0 3.557-1.402 6.79-3.665 9.269 2.371 2.587 3.665 5.928 3.665 9.593v42.465h-9.485V34.058c0-2.695-2.048-4.85-4.742-4.85h-4.742v47.315h-9.485zm14.227-56.8c2.587 0 4.742-2.048 4.742-4.634s-2.156-4.742-4.742-4.742h-4.742v9.377h4.742zM450.766 15.089a14.275 14.275 0 0 1-9.485 13.472v47.962h-9.485V28.561a14.275 14.275 0 0 1-9.485-13.472V1.078h9.485v14.011c0 2.695 2.156 4.742 4.742 4.742s4.742-2.048 4.742-4.742V1.078h9.485v14.011zM491.077 76.631h-9.485V21.879l-4.742 9.377-4.742-9.377v54.752h-9.485V.862h9.269l4.958 9.808 5.066-9.808h9.161v75.769zM531.495 14.227v62.296h-9.485V29.097h-9.592v47.426h-9.485V14.227c0-6.143 3.988-11.425 9.485-13.472C513.927.323 515.543 0 517.16 0c1.724 0 3.341.323 4.85.755 5.497 2.047 9.485 7.329 9.485 13.472zm-9.485 0c0-2.587-2.156-4.742-4.85-4.742-2.587 0-4.742 2.156-4.742 4.742v5.589h9.592v-5.589zM543.35 76.523V.862h14.227c1.724 0 3.341.324 4.742.863 5.497 1.94 9.485 7.113 9.485 13.364v.108c0 3.557-1.402 6.79-3.665 9.269 2.371 2.587 3.665 5.928 3.665 9.593v42.465h-9.485V34.058c0-2.695-2.048-4.85-4.742-4.85h-4.742v47.315h-9.485zm14.227-56.8c2.587 0 4.742-2.048 4.742-4.634s-2.156-4.742-4.742-4.742h-4.742v9.377h4.742z"/><g><path d="M1.804 76.524V.863h14.227c1.724 0 3.341.324 4.742.863 5.497 1.94 9.485 7.113 9.485 13.364v.108c0 3.557-1.402 6.79-3.665 9.269 2.371 2.587 3.665 5.928 3.665 9.593v42.465h-9.485V34.059c0-2.695-2.048-4.85-4.742-4.85h-4.742v47.315H1.804zm14.227-56.8c2.587 0 4.742-2.048 4.742-4.634s-2.156-4.742-4.742-4.742h-4.742v9.377h4.742zM70.569 14.443v48.608c0 6.251-3.988 11.425-9.485 13.364-1.509.539-3.126.863-4.742.863-1.617 0-3.233-.323-4.742-.863-5.497-1.94-9.485-7.113-9.485-13.364V14.443c0-6.143 3.988-11.425 9.485-13.364C53.109.54 54.725.216 56.342.216c1.616 0 3.233.323 4.742.863 5.497 1.939 9.485 7.221 9.485 13.364zm-9.485 0c0-2.587-2.156-4.742-4.742-4.742S51.6 11.857 51.6 14.443v48.608c0 2.587 2.156 4.742 4.742 4.742s4.742-2.156 4.742-4.742V14.443zM110.879 76.632h-9.485V21.88l-4.742 9.377-4.742-9.377v54.752h-9.485V.863h9.269l4.958 9.808 5.066-9.808h9.161v75.769zM151.297 14.228v62.296h-9.485V29.085h-9.592v47.439h-9.485V14.228c0-6.143 3.988-11.425 9.485-13.472 1.509-.431 3.125-.755 4.742-.755 1.724 0 3.341.323 4.85.755 5.497 2.047 9.485 7.328 9.485 13.472zm-9.485 0c0-2.587-2.156-4.742-4.85-4.742-2.587 0-4.742 2.156-4.742 4.742v5.588h9.592v-5.588zM172.529 1.079v19.185l9.808-19.185h9.161v75.445h-9.485V21.987l-9.485 18.861v35.675h-9.377V1.079h9.378z"/></g></g></g></svg>