<?xml version="1.0" encoding="utf-8"?>
<!-- Generator: Adobe Illustrator 17.0.1, SVG Export Plug-In . SVG Version: 6.00 Build 0)  -->
<!DOCTYPE svg PUBLIC "-//W3C//DTD SVG 1.1//EN" "http://www.w3.org/Graphics/SVG/1.1/DTD/svg11.dtd">
<svg version="1.1" id="Capa_1" xmlns="http://www.w3.org/2000/svg" xmlns:xlink="http://www.w3.org/1999/xlink" x="0px" y="0px"
	 width="48.256px" height="57.304px" viewBox="0 0 48.256 57.304" enable-background="new 0 0 48.256 57.304" xml:space="preserve">
<g>
	<path fill="#EEAD1B" d="M2.475,10.421c4.382-1.149,8.604-2.255,12.962-3.398c0.337,0.731,0.623,1.399,0.948,2.046
		c0.961,1.917,2.434,2.569,4.277,1.915c1.615-0.573,2.511-2.159,2.073-4.049c-0.308-1.328,0.027-1.877,1.385-2.187
		c3.67-0.835,7.305-1.823,11.229-2.819c3.77,15.291,7.494,30.394,11.287,45.777c-4.379,1.202-8.642,2.372-13.084,3.591
		c-0.881-2.206-1.352-5.082-4.776-3.987c-2.983,0.954-2.012,3.347-1.651,5.593c-4.081,1.067-8.076,2.112-12.072,3.156
		c-1.154,0.302-1.28-0.448-1.496-1.317c-2.564-10.328-5.169-20.645-7.756-30.967C4.704,19.409,3.624,15.038,2.475,10.421z
		 M33.738,4.704c-0.74,0.143-1.23,0.215-1.708,0.335c-1.922,0.482-3.866,0.902-5.745,1.519c-0.52,0.171-1.139,0.901-1.209,1.44
		c-0.387,2.972-1.544,4.501-4.21,5.226c-2.544,0.692-4.448-0.006-6.044-2.417c-0.591-0.892-1.117-1.085-2.126-0.767
		c-1.889,0.593-3.812,1.113-5.754,1.484c-1.42,0.271-1.772,0.736-1.386,2.231c2.526,9.776,4.938,19.581,7.387,29.377
		c0.865,3.46,1.728,6.921,2.618,10.482c3.085-0.804,5.939-1.547,8.702-2.267c0.089-0.295,0.163-0.415,0.154-0.527
		c-0.271-3.363,1.66-5.05,3.768-5.687c2.758-0.834,4.28-0.167,6.451,2.632c0.245,0.316,0.833,0.657,1.158,0.575
		c2.686-0.674,5.348-1.446,8.148-2.225C40.519,32.223,37.146,18.534,33.738,4.704z"/>
	<path fill="#EEAD1B" d="M21.59,16.133c1.288,1.929,2.716,3.78,3.825,5.807c1.269,2.318,2.092,2.911,4.667,2.943
		c1.496,0.018,3.953-0.517,5.966-0.682c-1.332,2.168-2.387,4.034-3.595,5.796c-0.737,1.075-0.745,1.892,0.001,2.988
		c1.622,2.383,3.089,4.872,4.333,7.69c-2.794-0.902-5.625-1.708-8.368-2.745c-1.401-0.53-2.218-0.189-3.195,0.824
		c-1.996,2.07-4.144,3.993-6.449,6.185c0.179-3.06,0.283-5.942,0.545-8.81c0.113-1.235-0.246-1.941-1.335-2.522
		c-1.888-1.008-3.699-2.16-5.921-3.476c2.455-1.003,4.473-1.873,6.527-2.649c0.984-0.372,1.471-0.934,1.567-2.013
		c0.272-3.061,0.637-6.114,0.965-9.17C21.28,16.243,21.435,16.188,21.59,16.133z"/>
</g>
</svg>
