<svg xmlns="http://www.w3.org/2000/svg" width="112" height="57.304" viewBox="0 0 112 57.304"><g fill="#EEAD1B"><path d="M3.448 10.614c4.119-.289 6.397-2.779 6.885-6.969h90.461c1.488 2.201 2.665 4.014 3.935 5.761.259.356.848.505 1.313.672 2.8 1.001 2.813.993 2.81 4.1-.009 10.138-.042 20.276-.023 30.414.002 1.336-.207 2.098-1.752 2.55-2.43.711-4.351 2.343-5.028 4.919-.395 1.503-1.229 1.738-2.593 1.737-24.62-.013-49.241.015-73.861.035-4.408.004-8.816-.023-13.223.036-1.257.017-1.865-.282-2.151-1.664-.613-2.965-2.744-4.56-5.594-5.169-.993-.212-1.385-.592-1.384-1.604.014-11.397.001-22.794 0-34.191.001-.12.074-.236.205-.627zm43.144 32.569c1.866 0 3.436-.089 4.991.026 1.456.108 1.792-.46 1.782-1.839-.059-8.626-.03-17.254-.039-25.88-.001-.542-.074-1.084-.108-1.556h-9.876l-1.613 12.213-.308-.034-1.824-12.221h-9.911c0 9.497-.009 18.867.035 28.236.002.344.499.969.788.983 1.923.088 3.851.046 5.888.046V25.714l.268-.021 2.513 17.357h4.77l2.39-17.646.253.011.001 17.768zm9.872-.003c3.298 0 6.37.026 9.442-.013a29.908 29.908 0 0 0 3.759-.282c2.602-.365 4.095-1.883 4.133-4.552.091-6.285.098-12.572.007-18.857-.041-2.837-1.712-4.916-4.509-5.213-4.217-.447-8.479-.474-12.832-.684V43.18zm20.268-29.323V43.32c2.575-.812 5.434 1.278 7.514-1.573 1.89 1.701 4.037 2.444 6.533 1.282 2.577-1.199 2.729-3.528 2.724-5.928-.01-4.658.024-9.316-.029-13.974-.03-2.663-1.527-4.378-4.166-4.364-1.759.009-3.515.67-5.38 1.062v-5.968h-7.196zM26.481 43.08V13.909h-7.346V43.08h7.346zm70.086-23.516c1.551-.042 2.71-1.172 2.57-2.429-.157-1.415-.976-2.355-2.467-2.276-1.484.079-2.232 1.022-2.165 2.513.065 1.435.922 2.099 2.062 2.192z"/><path d="M64.062 18.864c1.476-.175 2.224.37 2.22 1.831-.011 5.081-.009 10.163-.028 15.244-.005 1.393-.487 2.322-2.192 1.956V18.864zM84.017 30.931c0-2.131-.064-4.266.044-6.392.028-.549.591-1.071.909-1.605.391.482 1.111.958 1.12 1.448.088 4.509.083 9.021.007 13.531-.007.434-.674.857-1.035 1.284-.346-.499-.966-.984-.991-1.499-.11-2.251-.047-4.511-.047-6.768l-.007.001z"/></g></svg>