<svg xmlns="http://www.w3.org/2000/svg" width="54.625" height="38.125" viewBox="0 0 54.625 38.125"><path fill="#FFF" d="M6.316 20.831a.252.252 0 0 1-.195-.411c.873-1.068 1.184-2.881.878-5.103-.391-2.834-1.735-5.707-3.127-6.683a.25.25 0 1 1 .289-.411c1.519 1.066 2.922 4.02 3.336 7.026.326 2.363-.024 4.312-.986 5.49a.254.254 0 0 1-.195.092z"/><path fill="#FFF" d="M1.142 9.397a.252.252 0 0 1-.06-.495l2.874-.718a.252.252 0 0 1 .122.488l-2.875.718a.254.254 0 0 1-.061.007zM6.96 14.044a.251.251 0 0 1-.021-.502c.017-.001 1.718-.146 3.339-.302 2.581-.248 4.384-1.772 4.384-3.706 0-2.043-1.956-3.705-4.36-3.705s-4.36 1.662-4.36 3.705c0 .688.298 1.468.62 2.208a.251.251 0 1 1-.461.201c-.344-.79-.662-1.628-.662-2.408 0-2.32 2.181-4.208 4.863-4.208s4.863 1.888 4.863 4.208c0 2.203-1.99 3.933-4.839 4.207-1.624.156-3.327.301-3.345.302H6.96zM20.33 22.988a.252.252 0 0 1-.105-.48c1.152-.529 1.513-1.943 1.612-3.035.278-3.055-1.136-7.359-2.801-8.527a.25.25 0 1 1 .289-.411c1.817 1.275 3.31 5.725 3.013 8.985-.16 1.757-.818 2.948-1.903 3.447a.28.28 0 0 1-.105.021z"/><path fill="#FFF" d="M6.96 14.044a.251.251 0 0 1-.021-.502c.015-.001 1.539-.133 3.627-.284 3.741-.271 8.451-2.716 8.498-2.741a.251.251 0 0 1 .233.445c-.196.103-4.851 2.519-8.695 2.797-2.084.151-3.605.282-3.62.283-.008.002-.015.002-.022.002zM17.759 23.624c-2.668 0-5.008-2.071-5.008-4.432 0-1.047.442-2.054 1.245-2.836.932-.908 2.255-1.408 3.624-1.371 6.203.165 8.65.935 8.751.968a.252.252 0 0 1-.155.479c-.036-.012-2.511-.782-8.609-.944-1.234-.032-2.424.415-3.26 1.229-.705.687-1.093 1.566-1.093 2.476 0 2.056 2.147 3.929 4.505 3.929 3.57 0 4.103-2.616 4.103-4.175a.251.251 0 0 1 .502 0c.001 1.406-.448 4.677-4.605 4.677z"/><path fill="#FFF" d="M26.435 24.524a.253.253 0 0 1-.121-.031c-2.018-1.104-1.867-7.415-1.734-12.983.082-3.408.174-7.271-.452-7.704a.252.252 0 0 1 .286-.414c.809.56.783 3.313.668 8.13-.123 5.156-.277 11.573 1.473 12.53a.251.251 0 0 1-.12.472z"/><path fill="#FFF" d="M28.982 25.339h-.029c-3.428-.016-3.834-2.468-4.227-4.84l-.026-.157a.25.25 0 1 1 .496-.082l.026.157c.391 2.364.73 4.405 3.733 4.419h.027c2.487 0 4.619-1.612 4.759-3.603.168-2.393-1.241-3.822-4.19-4.246-6.104-.879-8.075-1.531-8.156-1.558a.252.252 0 0 1 .16-.477c.02.007 2.025.667 8.067 1.537 4.056.584 4.751 2.921 4.621 4.779-.158 2.25-2.515 4.071-5.261 4.071z"/><path fill="#FFF" d="M42.44 26.209c-1.016 0-2.002-.178-2.893-.619-2.103-1.039-3.519-4.791-4.208-11.152-.441-4.066-.483-8.315-.471-10.838-.496 2.411-1.39 6.175-3.352 8.816-1.989 2.677-4.579 3.2-5.824 3.452-.209.042-.446.09-.513.123a.252.252 0 0 1-.357-.354c.116-.129.321-.171.77-.262 1.184-.239 3.646-.737 5.52-3.259 2.108-2.837 2.955-7.073 3.411-9.348.193-.966.284-1.4.402-1.586a.253.253 0 0 1 .279-.107c.106.03.181.125.184.236.004.134 0 .414-.005.838-.023 1.984-.084 7.253.456 12.235.66 6.091 2.019 9.81 3.931 10.755 4.345 2.147 11.513-2.564 11.585-2.612a.251.251 0 1 1 .279.419c-.246.163-4.963 3.263-9.194 3.263z"/><path fill="#FFF" d="M46.307 19.33c-3.646 0-7.57-1.147-7.57-3.667 0-4.685 3.396-8.497 7.57-8.497s7.57 3.812 7.57 8.497c0 2.519-3.924 3.667-7.57 3.667zm0-11.661c-3.897 0-7.067 3.586-7.067 7.994 0 2.077 3.555 3.164 7.067 3.164s7.067-1.087 7.067-3.164c0-4.408-3.171-7.994-7.067-7.994zM12.186 28.94H8.174v1.534h3.687v2.463H8.174v1.905h4.151v2.463H5.416V26.462h6.769l.001 2.478zM19.264 26.322c2.184.015 4.461 1.146 4.988 3.842h-2.726c-.449-.929-1.162-1.301-2.262-1.301-1.75 0-2.695 1.363-2.695 3.021 0 1.797 1.053 2.974 2.695 2.974 1.115 0 1.828-.294 2.324-1.332H19.28v-2.401h5.127c.062 1.084.062 2.122-.31 3.176-.774 2.262-2.835 3.129-4.833 3.129-2.757 0-5.546-1.843-5.561-5.546.016-3.703 2.804-5.562 5.561-5.562zM30.866 34.873v2.432h-5.499v-2.432h1.379v-5.995h-1.27v-2.416h5.282v2.416h-1.27v5.995h1.378zM36.426 37.305h-4.089V26.461h4.089c7.064.031 7.064 10.813 0 10.844zM35.11 34.78h1.317c3.454 0 3.454-5.793 0-5.793H35.11v5.793z"/><path fill="#FFF" d="M42.823 31.899c0-7.497 11.122-7.497 11.122 0 0 7.512-11.122 7.512-11.122 0zm8.288 0c0-3.904-5.437-3.904-5.437 0-.001 3.934 5.437 3.934 5.437 0z"/></svg>