<?xml version="1.0" encoding="utf-8"?>
<!-- Generator: Adobe Illustrator 17.0.1, SVG Export Plug-In . SVG Version: 6.00 Build 0)  -->
<!DOCTYPE svg PUBLIC "-//W3C//DTD SVG 1.1//EN" "http://www.w3.org/Graphics/SVG/1.1/DTD/svg11.dtd">
<svg version="1.1" id="Capa_1" xmlns="http://www.w3.org/2000/svg" xmlns:xlink="http://www.w3.org/1999/xlink" x="0px" y="0px"
	 width="54.625px" height="38.125px" viewBox="0 0 54.625 38.125" enable-background="new 0 0 54.625 38.125" xml:space="preserve">
<g>
	<g>
		<path fill="#FFFFFF" d="M6.316,20.831c-0.056,0-0.112-0.019-0.159-0.057c-0.108-0.088-0.124-0.246-0.036-0.354
			c0.873-1.068,1.184-2.881,0.878-5.103C6.608,12.483,5.264,9.61,3.872,8.634c-0.114-0.08-0.141-0.237-0.061-0.35
			c0.08-0.114,0.237-0.141,0.35-0.061c1.519,1.066,2.922,4.02,3.336,7.026c0.326,2.363-0.024,4.312-0.986,5.49
			C6.461,20.799,6.389,20.831,6.316,20.831z"/>
	</g>
	<g>
		<path fill="#FFFFFF" d="M1.142,9.397c-0.113,0-0.215-0.076-0.244-0.191C0.865,9.072,0.947,8.935,1.082,8.902l2.874-0.718
			C4.09,8.15,4.227,8.232,4.261,8.367c0.034,0.135-0.048,0.271-0.183,0.305L1.203,9.39C1.183,9.395,1.162,9.397,1.142,9.397z"/>
	</g>
	<g>
		<path fill="#FFFFFF" d="M6.96,14.044c-0.129,0-0.239-0.099-0.25-0.23c-0.012-0.138,0.091-0.26,0.229-0.272
			c0.017-0.001,1.718-0.146,3.339-0.302c2.581-0.248,4.384-1.772,4.384-3.706c0-2.043-1.956-3.705-4.36-3.705
			s-4.36,1.662-4.36,3.705c0,0.688,0.298,1.468,0.62,2.208c0.056,0.127-0.003,0.276-0.13,0.331c-0.127,0.055-0.276-0.003-0.331-0.13
			c-0.344-0.79-0.662-1.628-0.662-2.408c0-2.32,2.181-4.208,4.863-4.208s4.863,1.888,4.863,4.208c0,2.203-1.99,3.933-4.839,4.207
			c-1.624,0.156-3.327,0.301-3.345,0.302C6.974,14.044,6.967,14.044,6.96,14.044z"/>
	</g>
	<g>
		<path fill="#FFFFFF" d="M20.33,22.988c-0.095,0-0.186-0.054-0.229-0.147c-0.058-0.126-0.003-0.276,0.124-0.333
			c1.152-0.529,1.513-1.943,1.612-3.035c0.278-3.055-1.136-7.359-2.801-8.527c-0.114-0.08-0.141-0.237-0.061-0.35
			c0.08-0.114,0.237-0.141,0.35-0.061c1.817,1.275,3.31,5.725,3.013,8.985c-0.16,1.757-0.818,2.948-1.903,3.447
			C20.4,22.981,20.365,22.988,20.33,22.988z"/>
	</g>
	<g>
		<path fill="#FFFFFF" d="M6.96,14.044c-0.129,0-0.239-0.099-0.25-0.23c-0.012-0.138,0.09-0.26,0.229-0.272
			c0.015-0.001,1.539-0.133,3.627-0.284c3.741-0.271,8.451-2.716,8.498-2.741c0.123-0.065,0.275-0.017,0.339,0.106
			c0.064,0.123,0.017,0.275-0.106,0.339c-0.196,0.103-4.851,2.519-8.695,2.797c-2.084,0.151-3.605,0.282-3.62,0.283
			C6.974,14.044,6.967,14.044,6.96,14.044z"/>
	</g>
	<g>
		<path fill="#FFFFFF" d="M17.759,23.624c-2.668,0-5.008-2.071-5.008-4.432c0-1.047,0.442-2.054,1.245-2.836
			c0.932-0.908,2.255-1.408,3.624-1.371c6.203,0.165,8.65,0.935,8.751,0.968c0.132,0.043,0.205,0.185,0.162,0.317
			c-0.043,0.132-0.185,0.204-0.317,0.162c-0.036-0.012-2.511-0.782-8.609-0.944c-1.234-0.032-2.424,0.415-3.26,1.229
			c-0.705,0.687-1.093,1.566-1.093,2.476c0,2.056,2.147,3.929,4.505,3.929c3.57,0,4.103-2.616,4.103-4.175
			c0-0.139,0.113-0.251,0.251-0.251c0.139,0,0.251,0.113,0.251,0.251C22.365,20.353,21.916,23.624,17.759,23.624z"/>
	</g>
	<g>
		<path fill="#FFFFFF" d="M26.435,24.524c-0.041,0-0.082-0.01-0.121-0.031c-2.018-1.104-1.867-7.415-1.734-12.983
			c0.082-3.408,0.174-7.271-0.452-7.704c-0.114-0.079-0.143-0.236-0.064-0.35c0.079-0.114,0.236-0.143,0.35-0.064
			c0.809,0.56,0.783,3.313,0.668,8.13c-0.123,5.156-0.277,11.573,1.473,12.53c0.122,0.067,0.167,0.22,0.1,0.341
			C26.61,24.476,26.524,24.524,26.435,24.524z"/>
	</g>
	<g>
		<path fill="#FFFFFF" d="M28.982,25.339c-0.01,0-0.019,0-0.029,0c-3.428-0.016-3.834-2.468-4.227-4.84L24.7,20.342
			c-0.023-0.137,0.07-0.267,0.207-0.289c0.138-0.022,0.267,0.07,0.289,0.207l0.026,0.157c0.391,2.364,0.73,4.405,3.733,4.419
			c0.009,0,0.018,0,0.027,0c2.487,0,4.619-1.612,4.759-3.603c0.168-2.393-1.241-3.822-4.19-4.246
			c-6.104-0.879-8.075-1.531-8.156-1.558c-0.132-0.044-0.202-0.187-0.158-0.319c0.044-0.132,0.187-0.202,0.318-0.158
			c0.02,0.007,2.025,0.667,8.067,1.537c4.056,0.584,4.751,2.921,4.621,4.779C34.085,23.518,31.728,25.339,28.982,25.339z"/>
	</g>
	<g>
		<path fill="#FFFFFF" stroke="#1D1D1B" stroke-width="5" stroke-linecap="round" stroke-miterlimit="10" d="M24.189,3.598"/>
	</g>
	<g>
		<path fill="#FFFFFF" stroke="#1D1D1B" stroke-width="5" stroke-linecap="round" stroke-miterlimit="10" d="M21.315,4.316"/>
	</g>
	<g>
		<path fill="#FFFFFF" d="M42.44,26.209c-1.016,0-2.002-0.178-2.893-0.619c-2.103-1.039-3.519-4.791-4.208-11.152
			c-0.441-4.066-0.483-8.315-0.471-10.838c-0.496,2.411-1.39,6.175-3.352,8.816c-1.989,2.677-4.579,3.2-5.824,3.452
			c-0.209,0.042-0.446,0.09-0.513,0.123c-0.094,0.085-0.24,0.088-0.337,0.001c-0.104-0.093-0.112-0.252-0.02-0.355
			c0.116-0.129,0.321-0.171,0.77-0.262c1.184-0.239,3.646-0.737,5.52-3.259c2.108-2.837,2.955-7.073,3.411-9.348
			c0.193-0.966,0.284-1.4,0.402-1.586c0.06-0.093,0.173-0.136,0.279-0.107c0.106,0.03,0.181,0.125,0.184,0.236
			c0.004,0.134,0,0.414-0.005,0.838c-0.023,1.984-0.084,7.253,0.456,12.235c0.66,6.091,2.019,9.81,3.931,10.755
			c4.345,2.147,11.513-2.564,11.585-2.612c0.116-0.077,0.272-0.046,0.349,0.07c0.077,0.116,0.046,0.272-0.07,0.349
			C51.388,23.109,46.671,26.209,42.44,26.209z"/>
	</g>
	<g>
		<path fill="#FFFFFF" d="M46.307,19.33c-3.646,0-7.57-1.147-7.57-3.667c0-4.685,3.396-8.497,7.57-8.497s7.57,3.812,7.57,8.497
			C53.877,18.182,49.953,19.33,46.307,19.33z M46.307,7.669c-3.897,0-7.067,3.586-7.067,7.994c0,2.077,3.555,3.164,7.067,3.164
			c3.512,0,7.067-1.087,7.067-3.164C53.374,11.255,50.203,7.669,46.307,7.669z"/>
	</g>
	<path fill="#FFFFFF" d="M12.186,28.94c-1.611,0-2.417,0-4.012,0v1.534h3.687c0,0.821,0,1.642,0,2.463H8.174
		c0,0.635,0,1.255,0,1.905c1.595,0,2.525,0,4.151,0c0,0.805,0,1.642,0,2.463c-2.54,0-4.399,0-6.909,0c0-3.625,0-7.25,0-10.843
		c2.509,0,4.229,0,6.769,0C12.186,27.267,12.186,28.103,12.186,28.94z"/>
	<path fill="#FFFFFF" d="M19.264,26.322c2.184,0.015,4.461,1.146,4.988,3.842h-2.726c-0.449-0.929-1.162-1.301-2.262-1.301
		c-1.75,0-2.695,1.363-2.695,3.021c0,1.797,1.053,2.974,2.695,2.974c1.115,0,1.828-0.294,2.324-1.332H19.28v-2.401h5.127
		c0.062,1.084,0.062,2.122-0.31,3.176c-0.774,2.262-2.835,3.129-4.833,3.129c-2.757,0-5.546-1.843-5.561-5.546
		C13.719,28.181,16.507,26.322,19.264,26.322z"/>
	<path fill="#FFFFFF" d="M30.866,34.873c0,0.914,0,1.487,0,2.432c-1.843,0-3.656,0-5.499,0c0-0.945,0-1.518,0-2.432h1.379v-5.995
		h-1.27c0-0.929,0-1.503,0-2.416c1.766,0,3.516,0,5.282,0c0,0.914,0,1.487,0,2.416h-1.27v5.995H30.866z"/>
	<path fill="#FFFFFF" d="M36.426,37.305h-4.089V26.461h4.089C43.49,26.492,43.49,37.274,36.426,37.305z M35.11,34.78h1.317
		c3.454,0,3.454-5.793,0-5.793H35.11V34.78z"/>
	<path fill="#FFFFFF" d="M42.823,31.899c0-7.497,11.122-7.497,11.122,0C53.945,39.411,42.823,39.411,42.823,31.899z M51.111,31.899
		c0-3.904-5.437-3.904-5.437,0C45.673,35.833,51.111,35.833,51.111,31.899z"/>
</g>
</svg>
