<svg xmlns="http://www.w3.org/2000/svg" width="48.256" height="57.304" viewBox="0 0 48.256 57.304"><g fill="#FFF"><path d="M2.475 10.421l12.962-3.398c.337.731.623 1.399.948 2.046.961 1.917 2.434 2.569 4.277 1.915 1.615-.573 2.511-2.159 2.073-4.049-.308-1.328.027-1.877 1.385-2.187 3.67-.835 7.305-1.823 11.229-2.819l11.287 45.777-13.084 3.591c-.881-2.206-1.352-5.082-4.776-3.987-2.983.954-2.012 3.347-1.651 5.593l-12.072 3.156c-1.154.302-1.28-.448-1.496-1.317-2.564-10.328-5.169-20.645-7.756-30.967-1.097-4.366-2.177-8.737-3.326-13.354zm31.263-5.717c-.74.143-1.23.215-1.708.335-1.922.482-3.866.902-5.745 1.519-.52.171-1.139.901-1.209 1.44-.387 2.972-1.544 4.501-4.21 5.226-2.544.692-4.448-.006-6.044-2.417-.591-.892-1.117-1.085-2.126-.767-1.889.593-3.812 1.113-5.754 1.484-1.42.271-1.772.736-1.386 2.231 2.526 9.776 4.938 19.581 7.387 29.377l2.618 10.482 8.702-2.267c.089-.295.163-.415.154-.527-.271-3.363 1.66-5.05 3.768-5.687 2.758-.834 4.28-.167 6.451 2.632.245.316.833.657 1.158.575 2.686-.674 5.348-1.446 8.148-2.225L33.738 4.704z"/><path d="M21.59 16.133c1.288 1.929 2.716 3.78 3.825 5.807 1.269 2.318 2.092 2.911 4.667 2.943 1.496.018 3.953-.517 5.966-.682-1.332 2.168-2.387 4.034-3.595 5.796-.737 1.075-.745 1.892.001 2.988 1.622 2.383 3.089 4.872 4.333 7.69-2.794-.902-5.625-1.708-8.368-2.745-1.401-.53-2.218-.189-3.195.824-1.996 2.07-4.144 3.993-6.449 6.185.179-3.06.283-5.942.545-8.81.113-1.235-.246-1.941-1.335-2.522-1.888-1.008-3.699-2.16-5.921-3.476 2.455-1.003 4.473-1.873 6.527-2.649.984-.372 1.471-.934 1.567-2.013.272-3.061.637-6.114.965-9.17l.467-.166z"/></g></svg>